# xmcd
#
# Track frame offsets:
#	150
#	20785
#	35145
#	50020
#	63005
#	81225
#	95312
#	112175
#	131340
#	149765
#
# Disc length: 2503 seconds
#
# Revision: 0
# Processed by: cddbd v1.4PL0 Copyright (c) Steve Scherf et al.
# Submitted via: audiograbber 1.81.03
#
DISCID=9209c50a
DTITLE=Big Daddy Kinsey and Sons - Can't Let Go
DYEAR=1990
DGENRE=Blues
TTITLE0=Can't Let Go
TTITLE1=Going To New York
TTITLE2=Meanest Woman
TTITLE3=Kinsey's Mood Too
TTITLE4=It's Over
TTITLE5=Dancin' Shoes
TTITLE6=Do You Need Me Like I Need You
TTITLE7=Hard Life
TTITLE8=I'm A Lover
TTITLE9=Howlin' Wolf
EXTD=
EXTT0=
EXTT1=
EXTT2=
EXTT3=
EXTT4=
EXTT5=
EXTT6=
EXTT7=
EXTT8=
EXTT9=
PLAYORDER=
